<?xml version="1.0" encoding="UTF-8"?>
<svg version="1.1" xmlns="http://www.w3.org/2000/svg" width="1500" height="500">
<path d="M0 0 C97.81624647 -8.54705066 97.81624647 -8.54705066 123.89556885 12.31323242 C141.54820509 27.29960498 154.40818351 46.44902245 157.29199219 69.72402954 C158.61304921 86.59866092 157.21476354 104.3511197 145.90177917 117.69816589 C140.92707708 123.02603549 135.2488507 127.27174067 129 131 C132.23006374 135.01667811 135.41769005 138.44557833 139.43334961 141.68286133 C147.63517873 148.51959566 153.73244842 154.51395704 155.30239868 165.41148376 C155.75799079 171.19291122 155.74408974 176.89445957 155.5625 182.6875 C155.5519458 183.8863382 155.5413916 185.08517639 155.53051758 186.32034302 C155.34018318 199.65346848 154.74749417 211.6623745 145.12475586 221.6418457 C141.36718391 225.13511706 137.35556194 228.20717545 133.01953125 230.95092773 C127.13671429 234.94304309 122.51223432 238.9794714 118.68066406 245.01464844 C113.74606233 252.15482404 108.16949696 258.48659945 99.49655151 260.61410522 C84.35799665 263.07838757 68.59836562 261.95249505 53.34338379 261.37329102 C46.26161995 261.13031172 39.1763733 261.04047624 32.09161377 260.92422485 C21.3873204 260.73179707 10.70544048 260.3483332 0 260 C0 242.84 0 225.68 0 208 C21.12 208 42.24 208 64 208 C64 189.85 64 171.7 64 153 C42.88 153 21.76 153 0 153 C0 137.82 0 122.64 0 107 C21.12 107 42.24 107 64 107 C64 89.18 64 71.36 64 53 C42.88 53 21.76 53 0 53 C0 35.51 0 18.02 0 0 Z " fill="#18293B" transform="translate(452,94)"/>
<path d="M0 0 C29.04 0 58.08 0 88 0 C88 85.8 88 171.6 88 260 C58.96 260 29.92 260 0 260 C0 174.2 0 88.4 0 0 Z " fill="#18293B" transform="translate(352,94)"/>
<path d="M0 0 C11.80721264 9.83934386 18.69130728 23.14524177 20.37942505 38.43701172 C20.53771563 41.91206559 20.58105742 45.36518963 20.56640625 48.84375 C20.57260483 50.0970813 20.57880341 51.3504126 20.58518982 52.64172363 C20.59223376 55.2634199 20.5892102 57.88516142 20.57641602 60.50683594 C20.56475009 63.85434266 20.58296013 67.19866953 20.61790562 70.54579926 C20.64517866 73.77013648 20.63514957 76.99433005 20.62890625 80.21875 C20.64216446 81.41254272 20.65542267 82.60633545 20.66908264 83.83630371 C20.56566171 93.04172188 20.56566171 93.04172188 17.58959961 96.74194336 C14.45496941 99.47525105 12.92793777 99.9608385 8.92578125 100.171875 C5.10025119 99.83044838 2.96230371 97.89356773 0.25 95.375 C-1.65059215 91.76387491 -1.75036213 88.02863867 -2 84 C-2.53173828 84.63615234 -2.53173828 84.63615234 -3.07421875 85.28515625 C-11.51462709 94.5839112 -22.53173183 99.46219668 -34.875 100.24609375 C-50.01370014 100.83720758 -62.11579178 97.04303218 -73.9921875 87.37890625 C-84.58772193 77.56037768 -90.31282105 63.6118455 -91.23828125 49.3203125 C-91.72235875 31.07582411 -86.96264281 16.74923006 -74.359375 3.2578125 C-70.87256679 -0.07890131 -67.17328511 -2.60338518 -63 -5 C-62.4121875 -5.37769531 -61.824375 -5.75539063 -61.21875 -6.14453125 C-42.53784474 -17.08269288 -16.4409518 -12.63146297 0 0 Z M-61.8203125 18.84765625 C-69.60171306 28.36911875 -71.09341353 39.13296177 -70.21435547 51.03173828 C-69.14943543 60.81008148 -64.12319046 67.49876851 -57 74 C-48.05625019 80.91476845 -39.11787193 81.89623661 -28 81 C-19.1500226 79.16175843 -12.48450244 74.89692882 -7.24609375 67.53515625 C-0.61248725 56.90540126 1.27474512 46.33127129 -1.15625 33.984375 C-4.04108776 23.78059699 -10.12542117 15.84529287 -19.40234375 10.65625 C-34.58928364 3.5808038 -50.06664435 6.91743085 -61.8203125 18.84765625 Z " fill="#0A64C1" transform="translate(1128,305)"/>
<path d="M0 0 C0.74121094 0.10183594 1.48242188 0.20367187 2.24609375 0.30859375 C8.37913647 3.62850389 11.02509398 12.54625842 13.50390625 18.71875 C13.8643251 19.59833878 14.22474396 20.47792755 14.59608459 21.38417053 C15.37311993 23.2828055 16.14683803 25.18280086 16.9175415 27.08401489 C18.14666048 30.11593075 19.38434269 33.14421934 20.62451172 36.17163086 C21.92960067 39.3575259 23.23424926 42.54359096 24.53637695 45.73069763 C28.94764295 56.52523303 33.42062367 67.29373281 37.90841675 78.05664062 C39.14816698 81.03064504 40.38588175 84.0054897 41.62329102 86.98046875 C46.85428575 99.54338466 52.17618428 112.06540794 57.5625 124.5625 C58.01761963 123.48210449 58.47273926 122.40170898 58.94165039 121.28857422 C68.81279445 97.86105898 78.72327497 74.45058877 88.6875 51.0625 C89.16551056 49.94035095 89.64352112 48.8182019 90.13601685 47.66204834 C90.83837967 46.01344818 90.83837967 46.01344818 91.55493164 44.33154297 C92.01539383 43.25065399 92.47585602 42.16976501 92.95027161 41.05612183 C93.85364803 38.93795076 94.75839217 36.8203624 95.66459656 34.70339966 C97.83661753 29.62803177 99.98932203 24.54628679 102.10058594 19.4453125 C102.70626907 17.99554016 102.70626907 17.99554016 103.32418823 16.51647949 C104.07904387 14.7083603 104.82642802 12.89709561 105.56472778 11.08215332 C107.34634765 6.83762921 108.85052763 3.4877457 112.5625 0.5625 C116.45118715 -0.85227087 119.65884518 -0.8303934 123.4375 0.8125 C125.5625 2.5625 125.5625 2.5625 127.5625 5.5625 C128.09935358 11.75371984 127.01830967 15.92697087 124.44140625 21.50390625 C124.11069122 22.25128052 123.7799762 22.99865479 123.4392395 23.76867676 C122.34790355 26.22701408 121.23638901 28.67567176 120.125 31.125 C119.34649581 32.8703141 118.56958741 34.61634078 117.79418945 36.36303711 C116.18506755 39.9844122 114.56916186 43.60264097 112.94824219 47.21875 C109.67058298 54.543534 106.47272308 61.90270697 103.27624512 69.26318359 C101.89422371 72.44378906 100.50819588 75.6226419 99.12219238 78.80151367 C94.14147234 90.22555972 89.16921659 101.65329474 84.19863892 113.08175659 C83.32910972 115.08093398 82.45946408 117.08006072 81.58969116 119.07913208 C80.76463491 120.97554174 79.93989424 122.87208873 79.11549377 124.76878357 C78.33229251 126.56934589 77.54769146 128.36930009 76.76158142 130.16859436 C75.07342567 134.04009118 73.40597268 137.91463156 71.82568359 141.83154297 C71.56289108 142.47421616 71.30009857 143.11688934 71.02934265 143.77903748 C70.35504422 145.43719488 69.6947458 147.10102764 69.03588867 148.76538086 C67.31840149 152.02590293 65.32555751 154.14137939 62.5625 156.5625 C60.28125 157.19140625 60.28125 157.19140625 58.0625 157.125 C56.96421875 157.12693359 56.96421875 157.12693359 55.84375 157.12890625 C52.44693024 156.28551778 51.02299099 155.10272913 48.5625 152.5625 C46.62232089 149.22285382 45.10057013 145.72692129 43.5625 142.1875 C43.0888501 141.12587646 42.6152002 140.06425293 42.12719727 138.97045898 C40.58914103 135.50814076 39.07318711 132.03684018 37.5625 128.5625 C37.07249512 127.43956543 36.58249023 126.31663086 36.07763672 125.15966797 C34.0033674 120.40048949 31.93556691 115.63857833 29.8815918 110.87060547 C25.63976141 101.02438868 21.33476165 91.20701757 17.01269531 81.39578247 C10.09705841 65.69294589 3.25997831 49.95799584 -3.5 34.1875 C-4.09329605 32.80479919 -4.09329605 32.80479919 -4.69857788 31.39416504 C-5.8123198 28.79729067 -6.92416787 26.1996159 -8.03515625 23.6015625 C-8.36655609 22.82855804 -8.69795593 22.05555359 -9.03939819 21.25912476 C-11.39811775 15.73103018 -12.96145441 11.64037118 -12.4375 5.5625 C-9.65702353 0.99457438 -9.65702353 0.99457438 -6.57421875 -0.09765625 C-4.20068111 -0.47516589 -2.36980786 -0.39839058 0 0 Z " fill="#0A64C2" transform="translate(644.4375,247.4375)"/>
<path d="M0 0 C8.74820184 7.39808565 8.74820184 7.39808565 9.375 13.875 C9.31541346 17.15225968 9.14649924 17.81687595 7 20.5 C3.1790469 22.41047655 0.133107 22.86661921 -4 22 C-8.37516482 20.12387 -12.19912959 17.57205029 -16.0625 14.8125 C-23.85673555 10.00329083 -33.86758274 9.78240411 -42.6953125 11.53515625 C-46.92787244 12.81330554 -50.53961926 14.14896927 -53 18 C-53.4636564 22.32745971 -53.28828546 25.30011602 -51 29 C-44.22170238 33.22627669 -36.84211238 34.71912791 -29.125 36.5 C-13.84163455 40.04937119 -0.54534019 43.73733261 9 57 C12.60295945 63.51964091 12.51706093 71.36357081 10.84375 78.453125 C7.98012291 87.0970364 2.83575416 93.40367619 -5 98 C-21.77841996 105.5491382 -41.82242113 105.17375985 -59 99 C-75.43961001 92.52353903 -75.43961001 92.52353903 -79 85 C-79.79999266 81.8541642 -79.59448461 80.35073142 -79 77 C-76.45316546 73.84996781 -74.23087587 71.46636845 -70.1875 70.62109375 C-66.29481115 70.29438594 -63.87164926 70.41002518 -60.5703125 72.64453125 C-58.90307182 74.08006277 -57.23642985 75.51628986 -55.5703125 76.953125 C-46.50417061 84.17297052 -35.05494731 84.04551921 -24 83 C-19.4870951 82.18744329 -16.24115654 80.86880958 -12.5 78.25 C-10.39587885 75.09381828 -10.06518668 72.78082726 -10 69 C-11.19408904 64.73539627 -12.96150429 62.74825877 -16.67578125 60.5625 C-23.71284345 56.78620621 -31.61070754 55.39784998 -39.34448242 53.67138672 C-51.22347421 50.98759855 -62.84859541 47.10301172 -70.66015625 37.15234375 C-75.35677893 29.60762335 -75.9014864 21.58045737 -74 13 C-72.78420886 9.86282464 -71.194096 7.53857967 -69 5 C-68.40445313 4.31035156 -67.80890625 3.62070312 -67.1953125 2.91015625 C-50.70665997 -13.79627094 -18.63545578 -12.3960291 0 0 Z " fill="#0A64C1" transform="translate(926,302)"/>
<path d="M0 0 C4.57627119 3.15254237 4.57627119 3.15254237 6 6 C6.08639869 8.40838678 6.11567764 10.78733881 6.09765625 13.1953125 C6.0962413 13.90275604 6.09482635 14.61019958 6.09336853 15.33908081 C6.087766 17.60109669 6.07521318 19.86301398 6.0625 22.125 C6.05748532 23.65755065 6.05292236 25.19010286 6.04882812 26.72265625 C6.03779577 30.48180888 6.02052952 34.24088772 6 38 C6.87736816 37.98428955 6.87736816 37.98428955 7.77246094 37.96826172 C10.43159663 37.92659736 13.09066353 37.90064099 15.75 37.875 C16.67039062 37.85824219 17.59078125 37.84148437 18.5390625 37.82421875 C19.87324219 37.81455078 19.87324219 37.81455078 21.234375 37.8046875 C22.05131836 37.79421387 22.86826172 37.78374023 23.70996094 37.77294922 C26.28793619 38.02854804 27.82603319 38.60161996 30 40 C32.023815 43.0357225 32.33774253 43.95772487 32.4375 47.4375 C32.49744141 48.58025391 32.49744141 48.58025391 32.55859375 49.74609375 C32 52 32 52 30.14086914 54.12524414 C25.53645848 56.87357445 21.43919163 56.4334036 16.1875 56.25 C14.71893555 56.22292969 14.71893555 56.22292969 13.22070312 56.1953125 C10.81279229 56.14832887 8.40690665 56.08265694 6 56 C6.06711917 63.5625727 6.15697334 71.12463329 6.26245117 78.68676758 C6.29565442 81.25799466 6.32370058 83.82929382 6.34643555 86.40063477 C6.38006514 90.10203698 6.4323877 93.8027814 6.48828125 97.50390625 C6.49467117 98.64896133 6.5010611 99.79401642 6.50764465 100.97377014 C6.64747349 108.60722971 7.37414567 113.71768208 12.25 119.8125 C16.50059105 123.13764591 22.2624355 122.91620934 27.44140625 123.25 C31.76387766 124.16099288 33.27732473 125.58649667 36 129 C37.03027506 132.29688018 37.17298003 134.27348387 36.375 137.625 C34.5906012 140.70714338 33.02268876 142.07792087 30 144 C27.06921185 144.57911141 24.22931467 144.57068727 21.25 144.5 C20.04174561 144.48187256 20.04174561 144.48187256 18.80908203 144.46337891 C12.78634074 144.26209223 8.08673882 143.38056184 3 140 C2.319375 139.59910156 1.63875 139.19820312 0.9375 138.78515625 C-7.57520398 133.22287808 -11.82325594 124.73873841 -14.3664093 115.15907288 C-15.46659581 109.67356092 -15.36686648 104.25089043 -15.29296875 98.67578125 C-15.28872391 97.44836716 -15.28447906 96.22095306 -15.28010559 94.9563446 C-15.26344819 91.07483033 -15.22581949 87.19385467 -15.1875 83.3125 C-15.17243648 80.66472109 -15.15875101 78.01693397 -15.14648438 75.36914062 C-15.1135871 68.91257978 -15.06351809 62.45632839 -15 56 C-15.88042969 56.04640625 -16.76085937 56.0928125 -17.66796875 56.140625 C-19.41013672 56.19476563 -19.41013672 56.19476563 -21.1875 56.25 C-22.33605469 56.29640625 -23.48460937 56.3428125 -24.66796875 56.390625 C-28.64487971 55.92439863 -30.1951953 54.79454947 -33 52 C-34.52037965 48.48412205 -34.00165471 47.0051383 -32.8125 43.3125 C-30.90986764 39.83527533 -30.55316407 39.24939731 -27 38 C-23.984375 37.8046875 -23.984375 37.8046875 -20.75 37.875 C-19.67234375 37.89304687 -18.5946875 37.91109375 -17.484375 37.9296875 C-16.66453125 37.95289063 -15.8446875 37.97609375 -15 38 C-15.02094727 37.05680908 -15.04189453 36.11361816 -15.06347656 35.1418457 C-15.13181428 31.62872476 -15.18187747 28.11631415 -15.21972656 24.6027832 C-15.23979203 23.0847659 -15.26705134 21.56682541 -15.30175781 20.04907227 C-15.35050393 17.86194878 -15.37301805 15.67585048 -15.390625 13.48828125 C-15.41157227 12.17384033 -15.43251953 10.85939941 -15.45410156 9.50512695 C-14.92775035 5.44231818 -13.8689269 3.86068285 -11 1 C-7.07103746 -1.27466253 -4.32905145 -1.26264001 0 0 Z " fill="#0A64C1" transform="translate(982,260)"/>
<path d="M0 0 C3.79240089 3.69515985 4.94750777 6.56062128 5.14044189 11.85102844 C5.15250695 13.49481272 5.15896946 15.13864357 5.16113281 16.7824707 C5.16609772 17.68035309 5.17106262 18.57823547 5.17617798 19.50332642 C5.190798 22.47748579 5.19760148 25.45159182 5.203125 28.42578125 C5.20887674 30.49220278 5.21463447 32.55862428 5.22039795 34.62504578 C5.23090759 38.96023813 5.23675045 43.29541193 5.24023438 47.63061523 C5.24571789 53.18237273 5.26974314 58.73388482 5.29820633 64.28556538 C5.31684143 68.55525933 5.32203879 72.82489429 5.32357025 77.09462547 C5.32659551 79.14112883 5.33461977 81.18763118 5.34775543 83.23409462 C5.36483336 86.09936752 5.3629313 88.96404238 5.35644531 91.8293457 C5.3656601 92.6726796 5.37487488 93.51601349 5.3843689 94.38490295 C5.34943228 99.31835693 4.77581227 102.74626583 2 107 C-1.10986207 109.07324138 -1.89108387 109.27392186 -5.4375 109.25 C-6.19933594 109.25515625 -6.96117187 109.2603125 -7.74609375 109.265625 C-10.28289809 108.96666019 -11.84930201 108.36987133 -14 107 C-17.49890481 101.75164279 -17.15267569 96.42938364 -17.16113281 90.28173828 C-17.16609772 89.41443085 -17.17106262 88.54712341 -17.17617798 87.65353394 C-17.19074921 84.79245197 -17.19759262 81.93142543 -17.203125 79.0703125 C-17.20887988 77.07640584 -17.21463757 75.08249918 -17.22039795 73.08859253 C-17.23089309 68.91078433 -17.23674572 64.7329953 -17.24023438 60.55517578 C-17.24572094 55.20983488 -17.26975882 49.86474846 -17.29820633 44.51948738 C-17.31685524 40.40159368 -17.32203948 36.28376107 -17.32357025 32.1658287 C-17.32659138 30.19551067 -17.33460163 28.22519358 -17.34775543 26.25491714 C-17.36486566 23.49543258 -17.36292373 20.73656729 -17.35644531 17.97705078 C-17.37026749 16.76423431 -17.37026749 16.76423431 -17.3843689 15.5269165 C-17.34599477 10.29242151 -16.48960857 6.63513352 -14 2 C-9.53165785 -1.32527788 -5.19832353 -1.83991835 0 0 Z " fill="#0A64C1" transform="translate(812,295)"/>
<path d="M0 0 C3.26453996 1.7769015 5.42985067 4.10759236 7.4375 7.25 C8.27247009 11.33207602 8.13744492 14.98248622 7 19 C4.48106916 22.19972296 1.92379266 24.76680802 -2 26 C-7.58830573 26.45066982 -11.21157218 26.22940481 -16 23 C-19.01063095 19.26266502 -19.83567006 15.76556813 -20 11 C-18.41574474 5.80716332 -16.55648317 2.96171406 -12 0 C-7.80109914 -1.39963362 -4.27420317 -1.06490386 0 0 Z " fill="#0A64C2" transform="translate(812,251)"/>
</svg>
